HIERARCHY
ROOT Base
{
	OFFSET 0.0 0.0 0.0
	CHANNELS 0
	JOINT Door
	{
		OFFSET 0.21875 0.46875 0.00
		CHANNELS 3 Xrotation Yrotation Zrotation
		End Site
		{
			OFFSET 0.0 0.0 0.0
		}
	}
}
MOTION
Frames: 21
Frame Time: 0.041667
0.0 0.0 0.000
0.0 0.0 10.00 
0.0 0.0 20.00 
0.0 0.0 30.00 
0.0 0.0 40.00 
0.0 0.0 50.00 
0.0 0.0 60.00 
0.0 0.0 70.00 
0.0 0.0 80.00 
0.0 0.0 90.00 
0.0 0.0 100.0 
0.0 0.0 90.00 
0.0 0.0 80.00 
0.0 0.0 70.00
0.0 0.0 60.00 
0.0 0.0 50.00 
0.0 0.0 40.00 
0.0 0.0 30.00 
0.0 0.0 20.00 
0.0 0.0 10.00 
0.0 0.0 0.000 
